<?xml version="1.0" encoding="UTF-8" standalone="no"?>
<!-- Created with Inkscape (http://www.inkscape.org/) -->

<svg
   width="210mm"
   height="297mm"
   viewBox="0 0 210 297"
   version="1.1"
   id="svg5"
   inkscape:version="1.1.2 (0a00cf5339, 2022-02-04)"
   sodipodi:docname="logo.svg"
   xmlns:inkscape="http://www.inkscape.org/namespaces/inkscape"
   xmlns:sodipodi="http://sodipodi.sourceforge.net/DTD/sodipodi-0.dtd"
   xmlns="http://www.w3.org/2000/svg"
   xmlns:svg="http://www.w3.org/2000/svg">
  <sodipodi:namedview
     id="namedview7"
     pagecolor="#ff0000"
     bordercolor="#ffffff"
     borderopacity="1"
     inkscape:pageshadow="0"
     inkscape:pageopacity="1"
     inkscape:pagecheckerboard="1"
     inkscape:document-units="mm"
     showgrid="false"
     inkscape:zoom="0.55411055"
     inkscape:cx="682.17434"
     inkscape:cy="543.2129"
     inkscape:window-width="1600"
     inkscape:window-height="863"
     inkscape:window-x="1440"
     inkscape:window-y="0"
     inkscape:window-maximized="1"
     inkscape:current-layer="layer1" />
  <defs
     id="defs2" />
  <g
     inkscape:label="Layer 1"
     inkscape:groupmode="layer"
     id="layer1">
    <path
       id="rect846"
       style="color:#000000;fill:#ffffff;stroke-width:0.370439;-inkscape-stroke:none"
       d="m 64.61088,94.287538 c -4.34592,0 -7.90586,3.55917 -7.90586,7.905092 v 6.99637 h -8.6553 v 3.88391 h 12.53922 v -10.88028 c 0,-2.261702 1.76024,-4.021942 4.02194,-4.021942 2.2617,0 4.02213,1.76024 4.02213,4.021942 v 23.52288 h 3.88296 v -23.17123 h 0.0247 c 0,-2.2617 1.76024,-4.022132 4.02194,-4.022132 2.26169,0 4.02213,1.760362 4.02213,4.022132 v 23.17123 h 3.88315 v -23.17123 c 0,-0.0591 -9.9e-4,-0.11804 -0.002,-0.17688 h 0.0214 c 0,-2.2617 1.76024,-4.021942 4.02194,-4.021942 2.26169,0 4.02193,1.760242 4.02193,4.021942 v 23.34792 h 3.88335 V 112.8677 h 32.36119 v -8.59653 c 0,-2.2617 1.76024,-4.02194 4.02194,-4.02194 2.26169,0 4.02194,1.76024 4.02194,4.02194 v 21.44415 h 3.88334 0.24598 v -21.62103 c 0,-2.26177 1.76006,-4.02194 4.02175,-4.02194 2.2617,0 4.02194,1.76024 4.02194,4.02194 v 8.95604 h 12.95769 v -3.88335 h -9.07435 v -5.07269 c 0,-4.345922 -3.55935,-7.905282 -7.90528,-7.905282 -2.48402,0 -4.70756,1.16575 -6.15982,2.97366 -1.45329,-1.70634 -3.61129,-2.79678 -6.01319,-2.79678 -4.34592,0 -7.90528,3.55936 -7.90528,7.905282 v 4.71319 H 96.41424 v -6.61696 c 10e-6,-4.345922 -3.55936,-7.905282 -7.90528,-7.905282 -2.42077,0 -4.59649,1.10516 -6.04994,2.83469 -1.45089,-1.62736 -3.55938,-2.65762 -5.89642,-2.65762 -2.29827,0 -4.37606,0.99573 -5.82425,2.57645 -1.45291,-1.78312 -3.66332,-2.9281 -6.12747,-2.9281 z m 88.91029,27.788892 a 0.14701801,0.14701801 0 0 0 -0.14702,0.14702 0.14701801,0.14701801 0 0 0 0.14702,0.14701 0.14701801,0.14701801 0 0 0 0.14702,-0.14701 0.14701801,0.14701801 0 0 0 -0.14702,-0.14702 z" />
    <text
       xml:space="preserve"
       style="font-weight:600;font-size:24.6944px;line-height:1.25;font-family:FreeSans;-inkscape-font-specification:'FreeSans, Semi-Bold';stroke-width:0.264583"
       x="17.653204"
       y="153.29527"
       id="text50199"><tspan
         sodipodi:role="line"
         id="tspan50197"
         style="font-style:normal;font-variant:normal;font-weight:bold;font-stretch:normal;font-size:24.6944px;font-family:OpenSymbol;-inkscape-font-specification:'OpenSymbol Bold';fill:#ffffff;stroke-width:0.264583"
         x="17.653204"
         y="153.29527"
         rotate="0 0 0 0 0 0 0 0 0 0 0">MEU TREINO</tspan></text>
  </g>
</svg>
